<?xml version="1.0" standalone="no"?>
<!DOCTYPE svg PUBLIC "-//W3C//DTD SVG 20010904//EN"
 "http://www.w3.org/TR/2001/REC-SVG-20010904/DTD/svg10.dtd">
<svg version="1.0" xmlns="http://www.w3.org/2000/svg"
 width="776.000000pt" height="776.000000pt" viewBox="0 0 776.000000 776.000000"
 preserveAspectRatio="xMidYMid meet">
<metadata>
Created by potrace 1.11, written by Peter Selinger 2001-2013
</metadata>
<g transform="translate(0.000000,776.000000) scale(0.100000,-0.100000)"
fill="#000000" stroke="none">
<path d="M3629 7756 c-2 -2 -43 -6 -90 -10 -47 -4 -95 -8 -107 -11 -11 -2 -49
-6 -84 -10 -35 -3 -81 -10 -103 -15 -22 -5 -58 -11 -80 -15 -22 -4 -44 -8 -50
-9 -5 -1 -37 -8 -70 -15 -77 -16 -191 -46 -280 -73 -38 -12 -72 -22 -75 -23
-73 -15 -334 -122 -515 -210 -402 -195 -729 -430 -1055 -758 -76 -75 -186
-196 -221 -242 -13 -16 -30 -37 -38 -45 -26 -27 -176 -234 -233 -320 -178
-274 -322 -570 -430 -889 -37 -109 -110 -380 -121 -446 -3 -16 -14 -84 -25
-150 -39 -228 -47 -335 -47 -630 0 -222 6 -367 20 -460 2 -16 9 -64 14 -105 6
-41 13 -85 15 -96 2 -12 7 -37 10 -55 3 -19 8 -45 11 -59 3 -14 8 -38 11 -55
2 -16 10 -48 15 -70 6 -22 13 -47 15 -55 35 -156 136 -449 205 -598 16 -35 29
-65 29 -68 0 -7 80 -167 126 -251 53 -96 185 -308 233 -373 23 -30 49 -66 59
-80 132 -187 384 -454 602 -641 409 -350 958 -641 1470 -780 25 -7 50 -14 55
-15 6 -2 24 -6 40 -9 17 -3 48 -11 70 -17 43 -11 64 -15 110 -23 17 -3 64 -12
105 -20 41 -8 99 -17 129 -20 30 -4 61 -8 70 -10 140 -27 745 -27 911 -1 14 3
66 10 115 16 50 7 142 23 205 36 63 14 124 26 135 28 59 12 321 89 360 106 11
5 38 14 60 21 99 30 444 187 545 248 19 11 42 24 50 28 78 36 338 211 480 323
266 211 441 388 696 707 100 124 280 416 379 613 114 227 249 592 290 783 2
10 7 27 10 37 3 10 8 29 10 42 3 13 10 48 16 78 7 30 13 62 14 70 2 14 18 109
20 120 2 9 16 103 20 140 27 218 27 793 0 925 -3 11 -7 42 -10 68 -2 27 -7 52
-9 55 -2 4 -7 32 -10 63 -4 31 -11 71 -16 88 -5 17 -9 32 -8 34 1 8 -16 91
-29 142 -8 33 -16 65 -17 70 -8 35 -32 115 -63 210 -111 346 -304 736 -501
1013 -37 52 -74 105 -83 118 -67 101 -330 392 -480 529 -468 430 -1026 736
-1639 899 -52 14 -111 28 -130 31 -19 3 -51 10 -70 15 -46 12 -192 37 -255 45
-65 7 -122 14 -165 21 -40 6 -615 15 -621 10z"/>
</g>
</svg>
